# xmcd
# 
# Track frame offsets:
#     150
#     16373
#     37758
#     54995
#     71930
#     85695
#     100913
#     116288
#     130225
# 
# Disc length: 1979
# 
# Revision: 12
# Processed by: cddbd v1.5.2PL0 Copyright (c) Steve Scherf et al.
# Submitted via: fre:ac v1.0.27
# 
DISCID=6a07b909
DTITLE=John Cougar Mellencamp - Uh-Huh
DYEAR=1983
DGENRE=Country-influenced Rock
TTITLE0=Crumblin' Down
TTITLE1=Pink Houses
TTITLE2=Authority Song
TTITLE3=Warmer Place To Sleep
TTITLE4=Jackie O
TTITLE5=Play Guitar
TTITLE6=Serious Business
TTITLE7=Lovin' Mother Fo Ya
TTITLE8=Golden Gates
EXTD=YEAR: 1983
EXTT0=
EXTT1=
EXTT2=
EXTT3=
EXTT4=
EXTT5=
EXTT6=
EXTT7=
EXTT8=
PLAYORDER=
